# xmcd
#
# Track frame offsets: 
#        150
#        19743
#        42205
#        62694
#        80009
#        94773
#        113637
#        130427
#        147532
#        161704
#        177973
#        192374
#        208439
#        225664
#        244164
#        260848
#        293904
#
# Disc length: 4214 seconds
#
# Revision: 0
# Processed by: cddbd v1.5.1PL0 Copyright (c) Steve Scherf et al.
# Submitted via: ExactAudioCopy v0.95a5
#
DISCID=05107411
DTITLE=Басков Николай and Повалий Таисия - Отпусти Меня
DYEAR=2005
DGENRE=Pop
TTITLE0=Отпусти Меня
TTITLE1=Я Буду Руки Твои Целовать
TTITLE2=Ах, Счастье
TTITLE3=Река Судьбы
TTITLE4=Ти Моя Украiна
TTITLE5=Червона Рута
TTITLE6=Ах, Эта Ночь
TTITLE7=Лучше Забудь
TTITLE8=Три Зимы
TTITLE9=Моя Любимая
TTITLE10=Не Спугните Жениха
TTITLE11=Но Только Ты Не Знала
TTITLE12=Романс
TTITLE13=Так Дложно И Быть
TTITLE14=L'Amore Le Stelle (Любовь И Звёзды)
TTITLE15=Adios (Никогда Не Говори Прощай)
TTITLE16=Data
EXTD=
EXTT0=
EXTT1=
EXTT2=
EXTT3=
EXTT4=
EXTT5=
EXTT6=
EXTT7=
EXTT8=
EXTT9=
EXTT10=
EXTT11=
EXTT12=
EXTT13=
EXTT14=
EXTT15=
EXTT16=
PLAYORDER=
